<?xml version="1.0" encoding="UTF-8" standalone="no"?>
<svg
   xmlns:dc="http://purl.org/dc/elements/1.1/"
   xmlns:cc="http://creativecommons.org/ns#"
   xmlns:rdf="http://www.w3.org/1999/02/22-rdf-syntax-ns#"
   xmlns:svg="http://www.w3.org/2000/svg"
   xmlns="http://www.w3.org/2000/svg"
   xmlns:xlink="http://www.w3.org/1999/xlink"
   xmlns:sodipodi="http://sodipodi.sourceforge.net/DTD/sodipodi-0.dtd"
   xmlns:inkscape="http://www.inkscape.org/namespaces/inkscape"
   version="1.1"
   width="256"
   height="256"
   id="svg2"
   sodipodi:docname="footsteps.svg"
   inkscape:version="0.92.1 r15371">
  <metadata
     id="metadata3738">
    <rdf:RDF>
      <cc:Work
         rdf:about="">
        <dc:format>image/svg+xml</dc:format>
        <dc:type
           rdf:resource="http://purl.org/dc/dcmitype/StillImage" />
      </cc:Work>
    </rdf:RDF>
  </metadata>
  <defs
     id="defs3736" />
  <sodipodi:namedview
     pagecolor="#ffffff"
     bordercolor="#666666"
     borderopacity="1"
     objecttolerance="10"
     gridtolerance="10"
     guidetolerance="10"
     inkscape:pageopacity="0"
     inkscape:pageshadow="2"
     inkscape:window-width="958"
     inkscape:window-height="1054"
     id="namedview3734"
     showgrid="false"
     inkscape:zoom="3.1015625"
     inkscape:cx="128"
     inkscape:cy="128"
     inkscape:window-x="960"
     inkscape:window-y="24"
     inkscape:window-maximized="0"
     inkscape:current-layer="svg2" />
  <g
     id="g3751"
     transform="matrix(0.98242356,-0.22320117,0.21929012,0.9652091,-26.83291,34.904135)">
    <g
       id="g3744">
      <g
         transform="translate(-102.71431,-227.93361)"
         id="layer1">
        <g
           transform="matrix(-1,0,0,1,461.10549,0)"
           id="g3050">
          <path
             d="m 256.66828,382.80872 c -16.50584,-25.41312 -20.95523,-35.91162 -21.89211,-51.76069 -1.54631,-26.15898 11.0342,-45.20195 31.75298,-46.62228 28.14406,-1.92935 51.28891,29.45789 59.5073,51.80363 2.38214,6.47702 3.62434,19.49461 4.29591,42.00414 0.21548,7.22251 0.64644,21.66753 0.64644,21.66753 l -56.66286,16.0194 c -5.30427,-13.34931 -12.25299,-24.80586 -17.64766,-33.11173 z m 38.7799,83.78621 c -6.2307,-2.00995 -12.33412,-7.53118 -15.51711,-14.03697 -2.02393,-4.13677 -3.42092,-8.08075 -3.75543,-16.44643 -0.15476,-3.87047 -0.46429,-11.61142 -0.46429,-11.61142 l 56.61088,-15.92402 c 0,0 3.85786,17.07209 5.7868,25.60813 1.64438,7.2768 -0.82647,15.84115 -6.69777,22.26529 -6.29622,6.88907 -13.98608,10.44085 -24.06352,11.11441 -4.9628,0.33171 -8.8483,0.0153 -11.89956,-0.96899 z"
             id="path3026"
             style="fill:#000000"
             inkscape:connector-curvature="0" />
          <use
             transform="matrix(-0.86263916,0.5058198,0.5058198,0.86263916,235.11673,-130.47509)"
             id="use3034"
             width="256"
             height="256"
             xlink:href="#path3026"
             x="0"
             y="0" />
        </g>
      </g>
    </g>
  </g>
</svg>
